<svg xmlns="http://www.w3.org/2000/svg" width="19" height="20" viewBox="0 0 19 20" fill="none">
<g id="fi_8369316">
<path id="sparkle" d="M16.739 9.61963L14.581 9.00292C13.6091 8.72893 12.7239 8.21013 12.0099 7.49614C11.2959 6.78216 10.7771 5.89689 10.5031 4.92505L9.88638 2.76697C9.85536 2.69146 9.8026 2.62688 9.7348 2.58143C9.66699 2.53598 9.58721 2.51172 9.50558 2.51172C9.42396 2.51172 9.34417 2.53598 9.27637 2.58143C9.20857 2.62688 9.15581 2.69146 9.12479 2.76697L8.50808 4.92505C8.2341 5.89689 7.71529 6.78216 7.0013 7.49614C6.28732 8.21013 5.40205 8.72893 4.43021 9.00292L2.27213 9.61963C2.18926 9.64315 2.11633 9.69306 2.0644 9.76178C2.01247 9.8305 1.98438 9.91429 1.98438 10.0004C1.98438 10.0866 2.01247 10.1703 2.0644 10.2391C2.11633 10.3078 2.18926 10.3577 2.27213 10.3812L4.43021 10.9979C5.40205 11.2719 6.28732 11.7907 7.0013 12.5047C7.71529 13.2187 8.2341 14.104 8.50808 15.0758L9.12479 17.2339C9.14831 17.3167 9.19822 17.3897 9.26694 17.4416C9.33566 17.4935 9.41945 17.5216 9.50558 17.5216C9.59172 17.5216 9.67551 17.4935 9.74423 17.4416C9.81295 17.3897 9.86286 17.3167 9.88638 17.2339L10.5031 15.0758C10.7771 14.104 11.2959 13.2187 12.0099 12.5047C12.7239 11.7907 13.6091 11.2719 14.581 10.9979L16.739 10.3812C16.8219 10.3577 16.8948 10.3078 16.9468 10.2391C16.9987 10.1703 17.0268 10.0866 17.0268 10.0004C17.0268 9.91429 16.9987 9.8305 16.9468 9.76178C16.8948 9.69306 16.8219 9.64315 16.739 9.61963Z" fill="url(#paint0_linear_479_26429)"/>
</g>
<defs>
<linearGradient id="paint0_linear_479_26429" x1="1.98437" y1="2.51172" x2="17.8167" y2="3.39707" gradientUnits="userSpaceOnUse">
<stop stop-color="#D0A862"/>
<stop offset="0.411458" stop-color="#F3D283"/>
<stop offset="0.71875" stop-color="#D0A862"/>
<stop offset="1" stop-color="#F3D283"/>
</linearGradient>
</defs>
</svg>