<svg xmlns="http://www.w3.org/2000/svg" width="17" height="17" viewBox="0 0 17 17" fill="none">
<path id="Vector" d="M15.4555 0.737529L2.73611 2.53636C2.63875 2.55045 2.54435 2.59823 2.46941 2.67316L0.768959 4.37362C0.626774 4.5158 0.714646 4.73433 0.902177 4.70667L12.6933 3.04016L1.44914 14.2843C1.3646 14.3688 1.35538 14.498 1.42865 14.5712L2.42778 15.5704C2.50105 15.6436 2.63017 15.6344 2.71471 15.5499L13.9569 4.30765L12.2904 16.0988C12.2644 16.2879 12.4813 16.3742 12.6235 16.232L14.3816 14.4739C14.4181 14.4374 14.4429 14.3892 14.4482 14.3407L16.2615 1.5435C16.2779 1.42685 16.2693 1.31161 16.2363 1.20554C16.2033 1.09947 16.1467 1.00505 16.0703 0.928657C15.994 0.852261 15.8995 0.795666 15.7935 0.762695C15.6874 0.729724 15.5722 0.721142 15.4555 0.737529Z" fill="white"/>
</svg>