<svg xmlns="http://www.w3.org/2000/svg" width="12" height="10" viewBox="0 0 12 10" fill="none">
<path id="Vector" d="M11.7491 4.66011L5.62662 0.0547752C5.57962 0.0196628 5.51966 0 5.45646 0H4.02226C3.90233 0 3.84723 0.129213 3.93799 0.196629L9.61322 4.46629H0.129646C0.0583405 4.46629 0 4.51685 0 4.57865V5.42135C0 5.48315 0.0583405 5.53371 0.129646 5.53371H9.6116L3.93637 9.80337C3.84561 9.87219 3.90071 10 4.02064 10H5.50346C5.53425 10 5.56504 9.99017 5.58773 9.97191L11.7491 5.33989C11.8052 5.29761 11.8502 5.24539 11.881 5.18675C11.9119 5.12812 11.9278 5.06443 11.9278 5C11.9278 4.93557 11.9119 4.87188 11.881 4.81325C11.8502 4.75461 11.8052 4.70239 11.7491 4.66011Z" fill="#0A0603"/>
</svg>