<svg xmlns="http://www.w3.org/2000/svg" width="17" height="18" viewBox="0 0 17 18" fill="none">
<path d="M16.8149 16.0653L12.9032 12.1544C14.037 10.7932 14.6023 9.04734 14.4817 7.27995C14.361 5.51256 13.5636 3.85973 12.2553 2.66529C10.9471 1.47085 9.22871 0.826763 7.45766 0.867013C5.68662 0.907263 3.99927 1.62875 2.74663 2.88139C1.49399 4.13404 0.772498 5.82138 0.732248 7.59243C0.691998 9.36347 1.33609 11.0819 2.53053 12.3901C3.72497 13.6984 5.3778 14.4958 7.14519 14.6164C8.91257 14.7371 10.6584 14.1717 12.0196 13.038L15.9305 16.9497C15.9886 17.0078 16.0576 17.0538 16.1334 17.0852C16.2093 17.1167 16.2906 17.1329 16.3727 17.1329C16.4549 17.1329 16.5362 17.1167 16.612 17.0852C16.6879 17.0538 16.7569 17.0078 16.8149 16.9497C16.873 16.8916 16.9191 16.8227 16.9505 16.7468C16.9819 16.6709 16.9981 16.5896 16.9981 16.5075C16.9981 16.4254 16.9819 16.3441 16.9505 16.2682C16.9191 16.1923 16.873 16.1234 16.8149 16.0653ZM1.99774 7.7575C1.99774 6.64498 2.32764 5.55745 2.94572 4.63242C3.5638 3.70739 4.44231 2.98642 5.47014 2.56068C6.49798 2.13494 7.62898 2.02354 8.72012 2.24059C9.81126 2.45763 10.8135 2.99336 11.6002 3.78003C12.3869 4.5667 12.9226 5.56898 13.1397 6.66012C13.3567 7.75126 13.2453 8.88226 12.8196 9.9101C12.3938 10.9379 11.6728 11.8164 10.7478 12.4345C9.82279 13.0526 8.73526 13.3825 7.62274 13.3825C6.1314 13.3808 4.70162 12.7877 3.64709 11.7332C2.59255 10.6786 1.99939 9.24884 1.99774 7.7575Z" fill="#0A0603"/>
</svg>