<svg xmlns="http://www.w3.org/2000/svg" width="18" height="15" viewBox="0 0 18 15" fill="none">
<path d="M16.9922 7.04242L8.1375 0.381953C8.06953 0.331172 7.98281 0.302734 7.89141 0.302734H5.81719C5.64375 0.302734 5.56406 0.489609 5.69531 0.587109L13.9031 6.76211H0.1875C0.084375 6.76211 0 6.83523 0 6.92461V8.14336C0 8.23273 0.084375 8.30586 0.1875 8.30586H13.9008L5.69297 14.4809C5.56172 14.5804 5.64141 14.7652 5.81484 14.7652H7.95938C8.00391 14.7652 8.04844 14.751 8.08125 14.7246L16.9922 8.02555C17.0733 7.9644 17.1384 7.88887 17.183 7.80407C17.2275 7.71927 17.2506 7.62717 17.2506 7.53398C17.2506 7.4408 17.2275 7.34869 17.183 7.26389C17.1384 7.17909 17.0733 7.10357 16.9922 7.04242Z" fill="#831424"/>
</svg>