<svg xmlns="http://www.w3.org/2000/svg" width="139" height="60" viewBox="0 0 139 60" fill="none">
<g id="Element">
<g id="XMLID_43_">
<g id="Group">
<path id="Vector" d="M68.164 29.3377C51.5399 34.3546 43.9722 21.5296 23.8119 29.5961C6.32011 36.6058 0.854233 48.0302 0.854233 48.0302C17.4838 38.8443 33.6988 43.0459 43.2713 47.2144C55.8341 52.6758 64.2837 48.6791 64.2837 48.6791C66.6393 53.9678 71.7094 57.8649 77.9164 58.4197C83.8375 58.9499 89.3065 56.288 92.6397 51.865C95.7117 55.538 100.192 58.0279 105.322 58.4893C114.775 59.3423 123.207 53.0054 125.259 43.9969C126.061 44.3376 126.939 44.5662 127.848 44.6448C132.642 45.077 136.862 41.5616 137.295 36.7687C137.677 32.3612 134.712 28.4263 130.469 27.5164C130.436 27.4967 130.42 27.4952 130.386 27.4923C130.643 26.8706 130.852 26.2276 131.011 25.5637C131.059 25.3984 131.092 25.2147 131.123 25.0479C131.278 24.4344 131.366 23.8147 131.421 23.1756C132.193 14.6661 125.912 7.13916 117.383 6.38316C113.296 6.01201 109.455 7.28944 106.454 9.63944C104.326 4.86184 99.7469 1.36347 94.196 0.865333C86.8461 0.19468 80.2942 4.98263 78.4593 11.8743C68.7054 8.62247 62.1402 13.3755 60.504 19.9287C59.4832 24.0775 62.0039 28.245 66.1351 29.2808C66.8158 29.4412 67.5085 29.4673 68.164 29.3377Z" fill="#2BA193"/>
</g>
<g id="Group_2">
<g id="Group_3">
<path id="Vector_2" d="M92.6455 52.6289C92.8336 52.6289 93.0224 52.5593 93.1696 52.4204C93.4767 52.131 93.4904 51.6481 93.2004 51.3419C91.4856 49.527 90.582 47.1527 90.6567 44.6563C90.7302 42.1716 91.7662 39.8679 93.5732 38.1694C95.8346 36.0338 99.4022 36.1279 101.528 38.376C102.775 39.6959 102.718 41.7831 101.399 43.0302C101.093 43.3204 101.08 43.8036 101.37 44.1095C101.659 44.4158 102.141 44.4295 102.449 44.1393C104.378 42.3136 104.463 39.2585 102.637 37.3275C99.9362 34.4693 95.4003 34.3469 92.5265 37.0572C90.4221 39.0358 89.2163 41.7184 89.1299 44.6105C89.0445 47.5156 90.0961 50.2786 92.0911 52.3894C92.2409 52.5485 92.4427 52.6289 92.6455 52.6289Z" fill="url(#paint0_linear_479_26600)"/>
</g>
<g id="Group_4">
<path id="Vector_3" d="M118.652 36.4431C124.145 36.4431 129.217 33.0361 131.182 27.7846C131.456 27.077 131.652 26.3683 131.764 25.6876C131.792 25.6079 131.828 25.4232 131.861 25.2502C131.94 24.8359 131.674 24.4076 131.26 24.3289C130.843 24.2475 130.451 24.4929 130.373 24.9054C130.373 24.9065 130.361 24.9652 130.361 24.9652C130.337 25.0922 130.312 25.2285 130.277 25.3526C130.162 26.0186 129.993 26.6249 129.756 27.242C127.795 32.4797 122.366 35.639 116.821 34.7733C112.898 34.158 110.207 30.452 110.824 26.5124C111.005 25.3813 111.616 24.3874 112.544 23.7157C113.47 23.0427 114.604 22.7706 115.737 22.9545C116.38 23.0538 116.943 23.3996 117.328 23.9265C117.713 24.4541 117.87 25.0981 117.77 25.7383C117.706 26.1557 117.991 26.5455 118.408 26.6099C118.822 26.6774 119.214 26.3893 119.279 25.9729C119.441 24.9295 119.186 23.8838 118.562 23.0282C117.936 22.1695 117.018 21.6091 115.975 21.4469C114.44 21.2025 112.905 21.5692 111.647 22.4797C110.39 23.3911 109.562 24.7386 109.316 26.2731C108.569 31.0476 111.83 35.5368 116.585 36.2822C117.276 36.3904 117.968 36.4431 118.652 36.4431Z" fill="url(#paint1_linear_479_26600)"/>
</g>
<g id="Group_5">
<path id="Vector_4" d="M106.999 59.3277C115.695 59.3277 123.469 53.457 125.795 45.0073C126.443 45.2129 127.111 45.3461 127.785 45.4048C130.29 45.6384 132.76 44.8692 134.698 43.2521C136.638 41.6362 137.83 39.3581 138.058 36.8368C138.447 32.3595 135.625 28.2539 131.401 26.9687C131.537 26.5681 131.657 26.1578 131.757 25.7412C131.811 25.5544 131.867 25.3457 131.887 25.1132C132.018 24.6363 132.119 24.0021 132.185 23.2409C132.577 18.9234 131.261 14.7107 128.478 11.3812C125.696 8.05072 121.78 6.00539 117.453 5.62183C113.661 5.28198 109.891 6.2886 106.744 8.47825C104.293 3.7604 99.5929 0.581968 94.267 0.104001C86.898 -0.549841 80.1804 3.94429 77.9489 10.9121C73.3991 9.55937 69.2341 9.81697 65.8621 11.6673C62.8124 13.342 60.6472 16.2093 59.7656 19.7423C58.6504 24.2752 61.4256 28.8847 65.9517 30.0206C66.7728 30.2136 67.5641 30.2353 68.3163 30.0853C68.73 30.0038 68.9985 29.6024 68.9157 29.1878C68.8332 28.7742 68.4278 28.5141 68.0183 28.5885C67.4836 28.6948 66.9088 28.6791 66.3125 28.5368C62.6099 27.6086 60.3334 23.8259 61.2479 20.109C62.0253 16.9963 63.9248 14.473 66.5971 13.006C69.772 11.2628 73.791 11.1226 78.2206 12.5984C78.4195 12.6641 78.6391 12.6462 78.8238 12.5459C79.0098 12.4455 79.1459 12.2735 79.1994 12.0708C80.9787 5.39008 87.2573 0.996309 94.1292 1.62455C99.2197 2.08053 103.676 5.27085 105.759 9.94913C105.856 10.1648 106.045 10.3229 106.273 10.3795C106.503 10.4372 106.743 10.3855 106.928 10.2404C109.907 7.90484 113.596 6.80769 117.317 7.14237C121.239 7.49024 124.785 9.34289 127.306 12.3602C129.826 15.3764 131.019 19.1919 130.664 23.1056C130.605 23.7864 130.517 24.344 130.386 24.8608C130.355 25.1104 130.317 25.2236 130.284 25.338C130.121 26.0109 129.923 26.6221 129.683 27.1997C129.591 27.4242 129.61 27.6797 129.736 27.8874C129.844 28.0653 130.018 28.1905 130.219 28.2363C130.249 28.2461 130.28 28.2552 130.311 28.2621C134.206 29.097 136.882 32.7255 136.537 36.7029C136.346 38.8147 135.346 40.725 133.721 42.0797C132.096 43.4353 130.033 44.0713 127.92 43.8845C127.111 43.8147 126.317 43.6161 125.562 43.294C125.351 43.2056 125.116 43.2146 124.916 43.3168C124.714 43.4203 124.569 43.607 124.518 43.8266C122.53 52.5557 114.322 58.5287 105.394 57.7287C100.616 57.2994 96.296 55.0433 93.2284 51.375C93.0791 51.1973 92.8774 51.1068 92.6241 51.1016C92.3905 51.1076 92.174 51.2201 92.0338 51.4058C88.7127 55.8107 83.46 58.1441 77.9869 57.6592C72.2932 57.1502 67.31 53.5902 64.9849 48.3686C63.9453 46.0876 63.4819 43.6497 63.6061 41.1173C63.6271 40.6958 63.3019 40.338 62.8815 40.3171C62.4611 40.3013 62.1023 40.6213 62.0814 41.0416C61.9471 43.7816 62.4699 46.5317 63.5924 48.9945C66.141 54.7171 71.6053 58.6208 77.8519 59.1795C83.5439 59.6892 89.018 57.4104 92.6723 53.0543C95.9517 56.6213 100.386 58.8109 105.257 59.2493C105.841 59.3021 106.422 59.3277 106.999 59.3277Z" fill="url(#paint2_linear_479_26600)"/>
</g>
<g id="Group_6">
<path id="Vector_5" d="M68.277 30.0765C68.3256 30.0765 68.3756 30.0716 68.4252 30.0625C70.5625 29.6412 72.2823 28.0053 72.8062 25.8935C73.322 23.8332 72.0647 21.734 70.0019 21.2142C69.5914 21.1128 69.1767 21.3593 69.0745 21.7677C68.9721 22.1771 69.2196 22.5917 69.6281 22.6952C70.8758 23.0091 71.6371 24.2783 71.3251 25.5236C70.9425 27.0651 69.6889 28.2577 68.1314 28.564C67.7177 28.6454 67.4484 29.0468 67.5288 29.4604C67.6 29.824 67.92 30.0765 68.277 30.0765Z" fill="url(#paint3_linear_479_26600)"/>
</g>
<g id="Group_7">
<path id="Vector_6" d="M56.2635 50.8679C61.3441 50.8679 64.3988 49.4697 64.6096 49.3691C64.9904 49.1894 65.1524 48.736 64.9733 48.3545C64.7943 47.9748 64.3401 47.8126 63.9582 47.9888C63.877 48.0276 55.6341 51.7546 43.5753 46.515C33.5055 42.1293 18.4914 38.6607 2.9457 46.0958C5.4894 42.4621 11.7779 35.2409 24.0962 30.3053C34.8468 26.0028 41.9691 27.7779 48.8549 29.4903C54.6322 30.9284 60.6064 32.4153 68.3758 30.0717C68.4434 30.0578 68.506 30.0399 68.5507 30.0221C68.9424 29.8661 69.1333 29.4218 68.9763 29.0302C68.8262 28.6554 68.4108 28.4638 68.038 28.5859C68.0062 28.5908 67.9744 28.5977 67.9436 28.6078C60.5717 30.8339 55.0577 29.4606 49.2238 28.0086C42.0994 26.2366 34.7325 24.406 23.5287 28.8882C5.96181 35.9276 0.394287 47.224 0.165611 47.7019C0.0225525 48.0009 0.0890274 48.3589 0.330383 48.5865C0.570969 48.8151 0.933891 48.8617 1.22311 48.6987C17.0911 39.935 32.6808 43.4364 42.9661 47.9145C48.1981 50.1882 52.7228 50.8679 56.2635 50.8679Z" fill="url(#paint4_linear_479_26600)"/>
</g>
</g>
</g>
</g>
<defs>
<linearGradient id="paint0_linear_479_26600" x1="103.953" y1="35.1016" x2="88.3325" y2="35.839" gradientUnits="userSpaceOnUse">
<stop stop-color="#D0A862"/>
<stop offset="0.411458" stop-color="#F3D283"/>
<stop offset="0.71875" stop-color="#D0A862"/>
<stop offset="1" stop-color="#F3D283"/>
</linearGradient>
<linearGradient id="paint1_linear_479_26600" x1="131.875" y1="21.373" x2="108.112" y2="23.3673" gradientUnits="userSpaceOnUse">
<stop stop-color="#D0A862"/>
<stop offset="0.411458" stop-color="#F3D283"/>
<stop offset="0.71875" stop-color="#D0A862"/>
<stop offset="1" stop-color="#F3D283"/>
</linearGradient>
<linearGradient id="paint2_linear_479_26600" x1="138.094" y1="0.0410156" x2="55.5859" y2="6.14278" gradientUnits="userSpaceOnUse">
<stop stop-color="#D0A862"/>
<stop offset="0.411458" stop-color="#F3D283"/>
<stop offset="0.71875" stop-color="#D0A862"/>
<stop offset="1" stop-color="#F3D283"/>
</linearGradient>
<linearGradient id="paint3_linear_479_26600" x1="72.9219" y1="21.1914" x2="67.2195" y2="21.3851" gradientUnits="userSpaceOnUse">
<stop stop-color="#D0A862"/>
<stop offset="0.411458" stop-color="#F3D283"/>
<stop offset="0.71875" stop-color="#D0A862"/>
<stop offset="1" stop-color="#F3D283"/>
</linearGradient>
<linearGradient id="paint4_linear_479_26600" x1="69.0313" y1="26.0898" x2="-2.04283" y2="37.1243" gradientUnits="userSpaceOnUse">
<stop stop-color="#D0A862"/>
<stop offset="0.411458" stop-color="#F3D283"/>
<stop offset="0.71875" stop-color="#D0A862"/>
<stop offset="1" stop-color="#F3D283"/>
</linearGradient>
</defs>
</svg>