<svg xmlns="http://www.w3.org/2000/svg" width="229" height="229" viewBox="0 0 229 229" fill="none">
<g id="Vector" opacity="0.2">
<path d="M169.595 58.3071L139.147 88.7553C138.441 89.4616 139.537 90.5592 140.244 89.8529L170.692 59.4048C171.398 58.6985 170.302 57.6001 169.595 58.3071Z" fill="white"/>
<path d="M194.494 33.4065L179.956 47.9449C179.249 48.6512 180.346 49.7488 181.053 49.0417L195.591 34.5041C196.297 33.7978 195.201 32.6994 194.494 33.4065Z" fill="white"/>
<path d="M114.106 35.9649V79.0243C114.106 80.0229 115.657 80.0245 115.657 79.0243V35.9649C115.658 34.9663 114.106 34.9647 114.106 35.9649Z" fill="white"/>
<path d="M114.106 0.749568V21.3095C114.106 22.3081 115.657 22.3097 115.657 21.3095V0.749568C115.658 -0.249076 114.106 -0.250635 114.106 0.749568Z" fill="white"/>
<path d="M59.0718 59.4043L89.5191 89.8524C90.2254 90.5587 91.3239 89.4626 90.616 88.7547L60.1687 58.3066C59.4624 57.6011 58.3647 58.6972 59.0718 59.4043Z" fill="white"/>
<path d="M34.1704 34.504L48.7081 49.0416C49.4144 49.7479 50.5128 48.6518 49.8057 47.9447L35.2673 33.4063C34.561 32.7 33.4626 33.7961 34.1704 34.504Z" fill="white"/>
<path d="M36.7295 114.892H79.7889C80.7876 114.892 80.7891 113.341 79.7889 113.341H36.7295C35.7309 113.341 35.7293 114.892 36.7295 114.892Z" fill="white"/>
<path d="M1.51461 114.892H22.0745C23.0731 114.892 23.0747 113.341 22.0745 113.341H1.51461C0.516744 113.341 0.515185 114.892 1.51461 114.892Z" fill="white"/>
<path d="M60.1684 169.929L90.6158 139.482C91.3221 138.775 90.226 137.677 89.5189 138.384L59.0716 168.832C58.3653 169.538 59.4614 170.636 60.1684 169.929Z" fill="white"/>
<path d="M35.2668 194.83L49.8052 180.291C50.5115 179.585 49.4154 178.486 48.7075 179.194L34.1699 193.732C33.4636 194.438 34.5597 195.537 35.2668 194.83Z" fill="white"/>
<path d="M115.657 192.269V149.21C115.657 148.211 114.106 148.21 114.106 149.21V192.269C114.105 193.268 115.657 193.269 115.657 192.269Z" fill="white"/>
<path d="M115.657 227.484V206.924C115.657 205.926 114.106 205.924 114.106 206.924V227.484C114.105 228.483 115.657 228.484 115.657 227.484Z" fill="white"/>
<path d="M170.692 168.832L140.244 138.383C139.538 137.678 138.44 138.773 139.147 139.481L169.595 169.928C170.301 170.635 171.399 169.539 170.692 168.832Z" fill="white"/>
<path d="M195.592 193.732L181.053 179.193C180.347 178.487 179.248 179.583 179.956 180.291L194.495 194.829C195.2 195.535 196.299 194.439 195.592 193.732Z" fill="white"/>
<path d="M193.037 113.34H149.977C148.979 113.34 148.977 114.892 149.977 114.892H193.037C194.035 114.892 194.036 113.34 193.037 113.34Z" fill="white"/>
<path d="M228.25 113.34H207.69C206.691 113.34 206.69 114.892 207.69 114.892H228.25C229.248 114.892 229.25 113.34 228.25 113.34Z" fill="white"/>
<path d="M159.468 49.755L144.905 70.3399C144.328 71.1553 145.594 72.0526 146.172 71.2364L160.735 50.6515C161.311 49.8353 160.045 48.938 159.468 49.755Z" fill="white"/>
<path d="M175.598 26.9537L168.653 36.771C168.076 37.5864 169.342 38.4837 169.919 37.6675L176.865 27.8502C177.442 27.0348 176.175 26.1375 175.598 26.9537Z" fill="white"/>
<path d="M100.892 37.0835L105.15 61.9366C105.319 62.9204 106.849 62.66 106.68 61.6746L102.422 36.8216C102.253 35.8377 100.723 36.0981 100.892 37.0835Z" fill="white"/>
<path d="M96.1759 9.55422L98.2067 21.407C98.3751 22.3908 99.9047 22.1304 99.7363 21.145L97.7055 9.29228C97.5371 8.30845 96.0068 8.56883 96.1759 9.55422Z" fill="white"/>
<path d="M50.5218 69.5365L71.1067 84.099C71.9221 84.6759 72.8194 83.4099 72.0032 82.8322L51.4183 68.2697C50.6029 67.6935 49.7056 68.9596 50.5218 69.5365Z" fill="white"/>
<path d="M27.7193 53.406L37.5365 60.3512C38.352 60.9281 39.2493 59.6621 38.4323 59.0844L28.615 52.1391C27.7995 51.5623 26.9023 52.8283 27.7193 53.406Z" fill="white"/>
<path d="M37.8513 128.103L62.7044 123.845C63.6882 123.677 63.4279 122.147 62.4425 122.316L37.5894 126.574C36.6048 126.742 36.8652 128.272 37.8513 128.103Z" fill="white"/>
<path d="M10.3221 132.819L22.1748 130.789C23.1586 130.62 22.8983 129.09 21.9129 129.259L10.0601 131.29C9.0755 131.459 9.33588 132.989 10.3221 132.819Z" fill="white"/>
<path d="M70.298 178.478L84.8606 157.894C85.4375 157.078 84.1714 156.181 83.5938 156.997L69.0312 177.582C68.4543 178.397 69.7204 179.295 70.298 178.478Z" fill="white"/>
<path d="M54.1668 201.28L61.1121 191.463C61.689 190.648 60.423 189.75 59.8453 190.567L52.9 200.384C52.3239 201.199 53.5892 202.097 54.1668 201.28Z" fill="white"/>
<path d="M128.872 191.152L124.614 166.299C124.446 165.315 122.916 165.576 123.085 166.561L127.343 191.414C127.511 192.399 129.042 192.138 128.872 191.152Z" fill="white"/>
<path d="M133.588 218.681L131.557 206.828C131.388 205.844 129.859 206.105 130.027 207.09L132.058 218.943C132.226 219.928 133.756 219.667 133.588 218.681Z" fill="white"/>
<path d="M179.246 158.696L158.661 144.134C157.845 143.557 156.948 144.823 157.764 145.401L178.349 159.963C179.165 160.54 180.062 159.274 179.246 158.696Z" fill="white"/>
<path d="M202.046 174.827L192.228 167.882C191.413 167.305 190.516 168.571 191.332 169.149L201.149 176.094C201.965 176.671 202.862 175.405 202.046 174.827Z" fill="white"/>
<path d="M191.918 100.132L167.064 104.39C166.081 104.558 166.341 106.088 167.326 105.92L192.179 101.661C193.163 101.493 192.903 99.9636 191.918 100.132Z" fill="white"/>
<path d="M219.447 95.4147L207.595 97.4455C206.611 97.6139 206.871 99.1435 207.857 98.9751L219.709 96.9443C220.694 96.7751 220.433 95.2456 219.447 95.4147Z" fill="white"/>
<path d="M171.893 78.5245L162.283 84.3713C161.43 84.8897 162.234 86.2166 163.089 85.6966L172.7 79.8498C173.552 79.3313 172.747 78.0045 171.893 78.5245Z" fill="white"/>
<path d="M195.424 64.2099L179.185 74.0887C178.332 74.6079 179.136 75.934 179.991 75.4148L196.23 65.5352C197.084 65.0167 196.278 63.6899 195.424 64.2099Z" fill="white"/>
<path d="M130.027 48.6325L127.365 59.563C127.129 60.5328 128.636 60.9015 128.873 59.9301L131.534 48.9997C131.771 48.0291 130.264 47.6603 130.027 48.6325Z" fill="white"/>
<path d="M136.543 21.8721L132.045 40.3404C131.809 41.3102 133.316 41.6789 133.553 40.7075L138.05 22.2393C138.287 21.2687 136.78 20.8999 136.543 21.8721Z" fill="white"/>
<path d="M79.2931 57.1019L85.14 66.7126C85.6592 67.5655 86.9852 66.7602 86.4653 65.9065L80.6184 56.295C80.0992 55.4422 78.7731 56.2475 79.2931 57.1019Z" fill="white"/>
<path d="M64.9762 33.5712L74.8558 49.8106C75.3742 50.6635 76.7011 49.8582 76.1811 49.0038L66.3023 32.7643C65.7831 31.9122 64.457 32.7168 64.9762 33.5712Z" fill="white"/>
<path d="M49.3985 98.9705L60.329 101.632C61.2988 101.868 61.6676 100.361 60.6962 100.124L49.7657 97.4628C48.7959 97.2266 48.4272 98.7335 49.3985 98.9705Z" fill="white"/>
<path d="M22.6361 92.4539L41.1044 96.9513C42.0742 97.1876 42.443 95.6806 41.4716 95.4436L23.0033 90.9462C22.0335 90.71 21.6648 92.2169 22.6361 92.4539Z" fill="white"/>
<path d="M57.8696 149.71L67.4802 143.863C68.3331 143.344 67.5278 142.017 66.6734 142.537L57.0627 148.384C56.2098 148.903 57.0151 150.23 57.8696 149.71Z" fill="white"/>
<path d="M34.3379 164.025L50.5774 154.146C51.4302 153.627 50.6249 152.3 49.7713 152.82L33.5318 162.699C32.6782 163.218 33.4835 164.545 34.3379 164.025Z" fill="white"/>
<path d="M99.7371 179.598L102.399 168.668C102.635 167.698 101.128 167.329 100.891 168.301L98.2294 179.231C97.9932 180.202 99.5009 180.57 99.7371 179.598Z" fill="white"/>
<path d="M93.2206 206.359L97.718 187.89C97.9542 186.921 96.4472 186.552 96.2103 187.523L91.7129 205.992C91.4766 206.961 92.9843 207.33 93.2206 206.359Z" fill="white"/>
<path d="M150.476 171.131L144.629 161.52C144.11 160.667 142.784 161.472 143.303 162.326L149.15 171.938C149.669 172.791 150.996 171.985 150.476 171.131Z" fill="white"/>
<path d="M164.792 194.663L154.913 178.423C154.394 177.57 153.068 178.375 153.588 179.229L163.467 195.469C163.985 196.322 165.312 195.517 164.792 194.663Z" fill="white"/>
<path d="M180.363 129.262L169.432 126.601C168.462 126.364 168.094 127.871 169.065 128.108L179.995 130.77C180.966 131.006 181.335 129.499 180.363 129.262Z" fill="white"/>
<path d="M207.121 135.778L188.653 131.281C187.683 131.044 187.314 132.551 188.286 132.788L206.754 137.286C207.725 137.522 208.093 136.015 207.121 135.778Z" fill="white"/>
<path d="M181.787 88.7612L147.608 101.468C146.673 101.816 147.211 103.272 148.149 102.923L182.328 90.2159C183.264 89.8674 182.724 88.4119 181.787 88.7612Z" fill="white"/>
<path d="M195.969 83.4886L189.061 86.0573C188.125 86.405 188.664 87.8605 189.601 87.512L196.51 84.9433C197.446 84.5948 196.906 83.1401 195.969 83.4886Z" fill="white"/>
<path d="M143.712 48.6542L128.529 81.8082C128.114 82.7156 129.524 83.3635 129.94 82.4545L145.123 49.3004C145.539 48.3922 144.129 47.7444 143.712 48.6542Z" fill="white"/>
<path d="M150.014 34.8981L146.944 41.5994C146.529 42.5068 147.939 43.1546 148.356 42.2456L151.425 35.5444C151.84 34.6369 150.43 33.9891 150.014 34.8981Z" fill="white"/>
<path d="M88.4314 47.2135L101.139 81.3927C101.486 82.3289 102.942 81.7895 102.593 80.8516L89.8861 46.6724C89.5377 45.7369 88.0822 46.2764 88.4314 47.2135Z" fill="white"/>
<path d="M83.1599 33.0331L85.7286 39.9417C86.0763 40.878 87.5318 40.3385 87.1833 39.4007L84.6146 32.4921C84.2661 31.5566 82.8114 32.096 83.1599 33.0331Z" fill="white"/>
<path d="M48.3213 85.2875L81.4754 100.471C82.3828 100.886 83.0306 99.4758 82.1216 99.0595L48.9676 83.8764C48.0594 83.4609 47.4116 84.8712 48.3213 85.2875Z" fill="white"/>
<path d="M34.5652 78.9884L41.2665 82.0576C42.174 82.4731 42.8218 81.0628 41.9128 80.6465L35.2115 77.5781C34.3041 77.1618 33.6562 78.5721 34.5652 78.9884Z" fill="white"/>
<path d="M46.8856 140.572L81.0648 127.864C82.0003 127.517 81.4616 126.061 80.5238 126.41L46.3446 139.117C45.4091 139.465 45.9486 140.92 46.8856 140.572Z" fill="white"/>
<path d="M32.7042 145.844L39.6129 143.275C40.5491 142.927 40.0097 141.472 39.0718 141.82L32.1632 144.389C31.2277 144.737 31.7672 146.193 32.7042 145.844Z" fill="white"/>
<path d="M84.9607 180.677L100.144 147.524C100.559 146.616 99.149 145.968 98.7327 146.877L83.5496 180.031C83.1341 180.938 84.5436 181.586 84.9607 180.677Z" fill="white"/>
<path d="M78.66 194.431L81.7292 187.73C82.1447 186.822 80.7345 186.175 80.3182 187.084L77.249 193.785C76.8335 194.693 78.2437 195.34 78.66 194.431Z" fill="white"/>
<path d="M140.243 182.116L127.536 147.937C127.188 147.002 125.733 147.54 126.081 148.478L138.788 182.657C139.136 183.593 140.591 183.053 140.243 182.116Z" fill="white"/>
<path d="M145.513 196.297L142.944 189.388C142.596 188.453 141.141 188.992 141.489 189.929L144.058 196.838C144.407 197.774 145.862 197.234 145.513 196.297Z" fill="white"/>
<path d="M180.348 144.043L147.195 128.86C146.287 128.444 145.64 129.855 146.549 130.271L179.703 145.454C180.609 145.869 181.257 144.459 180.348 144.043Z" fill="white"/>
<path d="M194.103 150.342L187.402 147.273C186.495 146.858 185.847 148.268 186.756 148.684L193.457 151.754C194.364 152.168 195.012 150.758 194.103 150.342Z" fill="white"/>
</g>
</svg>